#!OML:ASF F:\VICON\USERDATA\INSTALL\rory3\rory3.ASF
:FULLY-SPECIFIED
:DEGREES
180
root 2.54478 16.6936 5.94447 -109.375 -81.2852 111.139
lowerback 40.6141 0.908294 0.872896
upperback 8.26583 0.816645 4.41735
thorax -10.4556 -0.196781 4.05585
lowerneck -13.5719 0.0306124 -3.47499
upperneck 16.4505 2.38604 -10.393
head 7.44134 -0.165663 -2.60579
rclavicle 4.29375e-014 5.24792e-014
rhumerus 3.25877 -4.23872 -64.2387
rradius 55.6927
rwrist 35.7902
rhand -23.9684 13.4373
rfingers 7.12502
rthumb 2.50792 -16.5278
lclavicle 4.29375e-014 5.24792e-014
lhumerus -41.5804 2.79375 86.9039
lradius 51.5642
lwrist 4.44536
lhand -9.54794 43.5197
lfingers 7.12502
lthumb 16.4189 72.8448
rfemur -36.1593 -0.195383 0.628982
rtibia 59.6587
rfoot -19.1534 -5.87283
rtoes -12.336
lfemur -12.261 -8.09116 1.84839
ltibia 34.5881
lfoot 2.14737 0.97717
ltoes -27.3775
181
root 2.58049 16.6753 6.11826 -118.567 -81.0378 119.56
lowerback 41.342 2.05436 0.0306322
upperback 8.54598 1.86237 4.83866
thorax -10.4912 0.248303 4.50945
lowerneck -13.5498 -0.131005 -3.52888
upperneck 16.2322 2.17323 -10.5212
head 7.35962 -0.271103 -2.65714
rclavicle 1.59028e-015 3.81667e-014
rhumerus 4.49903 -5.1143 -64.5676
rradius 51.8649
rwrist 35.2081
rhand -22.317 13.1563
rfingers 7.12502
rthumb 4.10269 -16.784
lclavicle 1.59028e-015 3.81667e-014
lhumerus -40.9822 2.59238 87.7053
lradius 51.4353
lwrist 3.99147
lhand -8.20068 43.0766
lfingers 7.12502
lthumb 17.7157 72.2896
rfemur -35.6496 1.41622 0.272541
rtibia 59.1591
rfoot -18.8603 -5.65413
rtoes -11.9258
lfemur -10.5046 -7.34506 1.82005
ltibia 34.0112
lfoot 2.3125 -0.557272
ltoes -29.6783
182
root 2.62372 16.6568 6.34698 -112.292 -80.727 113.565
lowerback 40.9971 1.96409 -0.281755
upperback 8.42658 1.67381 4.88366
thorax -10.519 0.19008 4.80237
lowerneck -13.5998 -0.217149 -3.42771
upperneck 16.1482 2.08868 -10.9059
head 7.34497 -0.341117 -2.80926
rclavicle -1.59028e-015 2.38542e-014
rhumerus 5.61921 -6.42594 -65.1293
rradius 48.3375
rwrist 34.523
rhand -19.847 12.4426
rfingers 7.12502
rthumb 6.48748 -17.438
lclavicle -1.59028e-015 2.38542e-014
lhumerus -40.5781 2.4222 88.4088
lradius 51.4129
lwrist 3.74877
lhand -8.76552 43.8341
lfingers 7.12502
lthumb 17.1721 73.0953
rfemur -35.6516 0.489544 -1.4891
rtibia 58.5634
rfoot -18.3745 -5.26985
rtoes -12.3808
lfemur -11.2595 -8.3158 0.67494
ltibia 33.6307
lfoot 2.19807 -1.35553
ltoes -32.1093
183
root 2.66416 16.6392 6.60589 -112.187 -81.122 113.578
lowerback 40.8013 1.68003 0.657592
upperback 8.32501 1.72799 4.8818
thorax -10.5394 0.20751 4.28418
lowerneck -13.5893 -0.306392 -3.43618
upperneck 16.1965 1.98903 -11.0332
head 7.35697 -0.404926 -2.86154
rclavicle 2.54444e-014 5.40694e-014
rhumerus 6.41872 -8.17351 -65.8691
rradius 45.056
rwrist 33.8952
rhand -17.6539 10.7748
rfingers 7.12502
rthumb 8.60432 -19.0299
lclavicle 2.54444e-014 5.40694e-014
lhumerus -40.5081 1.7002 88.9339
lradius 51.6905
lwrist 3.95652
lhand -9.08681 44.4338
lfingers 7.12502
lthumb 16.8629 73.7216
rfemur -35.4749 0.302506 -2.10336
rtibia 57.7578
rfoot -17.7311 -5.22193
rtoes -13.5909
lfemur -11.5375 -8.72626 0.522249
ltibia 33.6375
lfoot 0.681028 -1.6699
ltoes -37.1992
184
root 2.71328 16.6311 6.84549 -117.342 -82.0684 118.403
lowerback 41.4382 1.94468 1.41699
upperback 8.1759 2.46849 5.63482
thorax -10.9775 0.506599 4.39225
lowerneck -13.4218 -0.477853 -4.03927
upperneck 16.1971 1.86998 -11.1725
head 7.32609 -0.515317 -2.82036
rclavicle -9.54166e-015 0
rhumerus 7.16199 -10.0127 -65.7464
rradius 41.7715
rwrist 32.2345
rhand -15.5417 8.30544
rfingers 7.12502
rthumb 10.6422 -21.4051
lclavicle -9.54166e-015 0
lhumerus -40.6358 1.07867 90.1038
lradius 52.1262
lwrist 4.25285
lhand -9.52583 45.2428
lfingers 7.12502
lthumb 16.4402 74.5661
rfemur -34.8353 1.09887 -1.75575
rtibia 56.8555
rfoot -17.3065 -5.19998
rtoes -12.8324
lfemur -11.1648 -8.10047 1.29552
ltibia 34.0558
lfoot -1.47946 -2.29682
ltoes -39.4624
185
root 2.74649 16.6299 7.09621 -120.167 -82.4331 121.215
lowerback 41.4115 2.03843 2.12814
upperback 8.113 2.90045 5.72212
thorax -11.0336 0.686792 3.92722
lowerneck -13.6105 -0.66719 -4.02523
upperneck 16.3976 1.63808 -11.1363
head 7.41539 -0.637154 -2.84113
rclavicle -1.90833e-014 -3.81667e-014
rhumerus 7.8314 -12.4365 -66.2883
rradius 38.568
rwrist 29.2737
rhand -13.5009 5.08
rfingers 7.12502
rthumb 12.6103 -24.5194
lclavicle -1.90833e-014 -3.81667e-014
lhumerus -40.6819 -0.121039 90.6457
lradius 52.7234
lwrist 5.10602
lhand -10.019 45.8971
lfingers 7.12502
lthumb 15.9654 75.2592
rfemur -34.4315 1.54353 -2.29882
rtibia 55.828
rfoot -16.9207 -4.71212
rtoes -10.6316
lfemur -11.3157 -7.77535 1.16847
ltibia 34.8711
lfoot -3.40082 -2.39935
ltoes -39.2441
186
root 2.79293 16.6251 7.32394 -119.485 -82.3307 120.649
lowerback 41.383 2.31071 2.05484
upperback 8.00755 3.23126 5.66965
thorax -11.1655 0.84793 3.76167
lowerneck -14.1252 -0.902574 -3.97089
upperneck 16.8307 1.35601 -10.9003
head 7.63498 -0.77956 -2.81744
rclavicle 9.54166e-015 0
rhumerus 8.55856 -15.1972 -67.1411
rradius 35.3985
rwrist 24.9707
rhand -12.2315 2.30086
rfingers 7.12502
rthumb 13.8339 -27.2191
lclavicle 9.54166e-015 0
lhumerus -40.7104 -1.18784 90.9992
lradius 53.3163
lwrist 5.91777
lhand -9.90038 46.2992
lfingers 7.12502
lthumb 16.0796 75.652
rfemur -34.1631 1.89241 -3.34067
rtibia 54.7931
rfoot -16.2879 -5.1475
rtoes -12.7168
lfemur -11.8336 -7.04294 0.451316
ltibia 35.7799
lfoot -5.05865 -2.79365
ltoes -40.3548
187
root 2.83299 16.6269 7.58222 -116.763 -82.3441 118.338
lowerback 40.9792 2.31492 2.30207
upperback 7.81238 3.38326 5.64579
thorax -11.2504 0.934042 3.5396
lowerneck -14.3299 -1.15205 -4.13622
upperneck 17.0465 1.05769 -10.7362
head 7.72994 -0.932369 -2.77558
rclavicle 1.74931e-014 2.54444e-014
rhumerus 9.48477 -20.2514 -68.2864
rradius 32.0135
rwrist 24.4565
rhand -10.3871 2.21953
rfingers 7.12502
rthumb 15.6108 -27.1705
lclavicle 1.74931e-014 2.54444e-014
lhumerus -40.8112 -1.80641 91.4478
lradius 53.7642
lwrist 6.02915
lhand -9.41632 46.3636
lfingers 7.12502
lthumb 16.5457 75.6782
rfemur -34.0103 2.0079 -4.54822
rtibia 53.6173
rfoot -15.4334 -5.70674
rtoes -14.3702
lfemur -13.0001 -6.52522 -0.501983
ltibia 36.7992
lfoot -6.84618 -2.8185
ltoes -42.442
188
root 2.86526 16.6309 7.82769 -114.119 -82.096 115.978
lowerback 40.6483 2.48788 2.08348
upperback 7.67844 3.5467 5.66653
thorax -11.3243 1.03169 3.60377
lowerneck -14.1452 -1.34131 -4.27116
upperneck 16.8294 0.784701 -10.7192
head 7.61475 -1.05282 -2.76865
rclavicle 1.27222e-014 4.13472e-014
rhumerus 10.4542 -24.4355 -69.3155
rradius 28.8989
rwrist 21.8467
rhand -11.2488 0.784476
rfingers 7.12502
rthumb 14.7808 -28.6685
lclavicle 1.27222e-014 4.13472e-014
lhumerus -40.8813 -2.20055 91.903
lradius 54.1463
lwrist 6.25128
lhand -9.33018 46.3742
lfingers 7.12502
lthumb 16.6286 75.6819
rfemur -33.6171 2.39343 -6.03815
rtibia 52.3022
rfoot -14.7118 -5.91858
rtoes -13.1571
lfemur -13.9032 -5.84513 -1.80274
ltibia 37.6834
lfoot -8.69418 -2.60836
ltoes -43.3057
